<?xml version="1.0" encoding="utf-8"?>
<!-- Generator: Adobe Illustrator 21.1.0, SVG Export Plug-In . SVG Version: 6.00 Build 0)  -->
<svg version="1.1" id="Layer_21" xmlns="http://www.w3.org/2000/svg" xmlns:xlink="http://www.w3.org/1999/xlink" x="0px" y="0px"
	 viewBox="0 0 24 24" style="enable-background:new 0 0 24 24;" xml:space="preserve">
<title></title>
<path d="M22.1,5.8c-0.7,0.4-1.5,0.6-2.4,0.7c0,0,0,0,0,0c0.8-0.5,1.4-1.2,1.7-2.1c-0.8,0.5-1.6,0.8-2.5,0.9C18.2,4.5,17.1,4,16,4
	c-2.2,0-4,1.8-4,4c0,0.3,0,0.5,0.1,0.8c-3.2-0.1-6.1-1.6-8.2-4c-0.3,0.6-0.5,1.3-0.5,2C3.3,8.1,4,9.3,5.1,10c-0.6,0-1.2-0.2-1.7-0.5
	c0,0,0,0,0,0.1c0,1.9,1.4,3.5,3.2,3.9c-0.6,0.1-1.2,0.2-1.8,0c0.5,1.7,2,2.8,3.8,2.9c-1.4,1-3.1,1.6-5,1.6c-0.4,0-0.9,0-1.3-0.1
	c5.2,3.5,12.3,2.1,15.8-3.1c1.3-1.9,1.9-4.1,1.9-6.4c0,0,0-0.1,0-0.1c0-0.1,0-0.2,0-0.3c0,0,0,0,0-0.1C20.8,7.4,21.5,6.7,22.1,5.8z"
	/>
</svg>
